<svg data-v-0dd9719b="" version="1.0" xmlns="http://www.w3.org/2000/svg" xmlns:xlink="http://www.w3.org/1999/xlink" width="100%" height="100%" viewBox="0 0 340.000000 250.000000" preserveAspectRatio="xMidYMid meet" color-interpolation-filters="sRGB" style="margin: auto;"> <rect data-v-0dd9719b="" x="0" y="0" width="100%" height="100%" fill="#fff" fill-opacity="1" class="background"></rect> <rect data-v-0dd9719b="" x="0" y="0" width="100%" height="100%" fill="url(#watermark)" fill-opacity="1" class="watermarklayer"></rect> <g data-v-0dd9719b="" fill="#e50012" class="iconblsvg-g iconsvg" transform="translate(50.85374450683594,96.37399291992188)"><g class="tp-name"><g data-gra="path-name" transform="translate(0, 4.771007537841797)"><g transform="scale(1)"><path d="M35.23-47.71L44.4-47.71 22.49-18.2 20.61 0 13.71 0 15.67-18.27 0-47.71 9.17-47.71 20.02-27.3 35.23-47.71ZM44.4 0L51.16 0 56.23-47.71 49.34-47.71 44.4 0Z" transform="translate(0, 47.709999084472656)"></path></g></g> <g transform="translate(59.22999954223633, 0)"><g><g class="imagesvg"><g><rect fill="#e50012" fill-opacity="0" stroke-width="2" x="0" y="0" width="54.06250427266538" height="57.25201397098919" class="image-rect"></rect> <svg x="0" y="0" width="54.06250427266538" height="57.25201397098919" filtersec="colorsb1171290647" class="image-svg-svg primary" style="overflow: visible;"><svg version="1.1" id="图层_1" xmlns="http://www.w3.org/2000/svg" xmlns:xlink="http://www.w3.org/1999/xlink" x="0px" y="0px" viewBox="0.8600006103515625 0.5300006866455078 98.6500015258789 104.47000122070312" enable-background="new 0 0 101 106" xml:space="preserve">
<path fill="#E50012" d="M27.3,37.38c16.68-21.79,47.87-25.92,69.65-9.23c0.89,0.67,1.73,1.38,2.55,2.1
	c-0.02-0.03-0.04-0.06-0.05-0.09C80.2,8.52,47.22,5.23,24.02,23.25C9.42,34.61,2.05,51.81,2.64,68.99
	C6.94,82.17,16.33,93.06,28.5,99.3C14.01,81.87,12.93,56.14,27.3,37.38z M19.49,17.42c24.19-18.8,59.03-14.43,77.82,9.76
	c0.75,0.96,1.45,1.95,2.12,2.95c-8.44-17.51-26.36-29.6-47.1-29.6c-25.79,0-47.21,18.69-51.47,43.26
	C4.19,33.69,10.45,24.44,19.49,17.42z M58.97,52.79c0-7.81,3.4-14.81,8.77-19.67C52.37,42.6,42.73,60.14,44.27,79.38
	c0.77,9.63,4.26,18.4,9.63,25.62c20.13-0.59,37.4-12.53,45.61-29.67c-4.06,2.53-8.84,4.02-13.98,4.02
	C70.86,79.35,58.97,67.46,58.97,52.79z M81.27,26.62c1.38-0.23,2.8-0.37,4.25-0.37c0.29,0,0.59,0.02,0.88,0.03
	c0.05,0,0.09-0.01,0.13-0.01c-0.02,0.01-0.04,0.01-0.05,0.01c4.78,0.18,9.21,1.61,13.02,3.98l0,0
	C77.9,15.87,48.57,20.51,32.56,41.41c-13.72,17.91-13.34,42.16-0.67,59.5c4.64,1.97,9.62,3.29,14.83,3.85
	c-5.05-7.07-8.3-15.56-9.06-24.85C35.52,53.22,54.91,29.77,81.27,26.62z"></path>
</svg></svg> <!----></g></g></g></g> <g data-gra="path-name-1" fill="#e50012" transform="translate(116.29250717163086, 4.771007537841797)"><g transform="scale(1)"><path d="M5-47.71L0 0 6.83 0 10.66-36.53 32.7 0 39.52 0 44.46-47.71 37.7-47.71 34-12.35 12.48-47.71 5-47.71ZM52.06-6.7L56.36-47.71 49.59-47.71 44.46 0 78.06 0 83.2-47.71 76.44-47.71 72.09-6.7 52.06-6.7ZM122-47.71L88.34-47.71 83.2 0 116.87 0 122-47.71ZM90.87-6.7L94.45-41.02 114.53-41.02 110.89-6.7 90.87-6.7Z" transform="translate(0, 47.709999084472656)"></path></g></g></g> <!----></g><defs v-gra="od"></defs></svg>